# xmcd CD database file
#
# Track frame offsets:
#	150
#	26465
#	39635
#	56960
#	67047
#	78435
#	92262
#
# Disc length: 1382 seconds
#
# Revision: 0
# Processed by: cddbd v1.5.1PL0 Copyright (c) Steve Scherf et al.
# Submitted via: CDex 1.50
#
DISCID=54056407
DTITLE=Willie Nielson - Willie
DYEAR=1985
DGENRE=Country
TTITLE0=Sunday Mornin' Comin' Down
TTITLE1=Making Believe
TTITLE2=Me And Paul
TTITLE3=Hello Walls
TTITLE4=I've Seen That Look On Me (a Thousand Times)
TTITLE5=Good Hearted Woman
TTITLE6=One Day At The Time
EXTD=YEAR: 1985
EXTT0=
EXTT1=
EXTT2=
EXTT3=
EXTT4=
EXTT5=
EXTT6=
PLAYORDER=
